<svg xmlns="http://www.w3.org/2000/svg" viewBox="0 0 512 512" shape-rendering="crispEdges">
  <rect width="512" height="512" rx="64" fill="rgb(4, 6, 14)"/>
  <rect x="272" y="0" width="16" height="16" fill="rgb(220,230,255)"/>
  <rect x="336" y="0" width="16" height="16" fill="rgb(60,60,40)"/>
  <rect x="352" y="0" width="16" height="16" fill="rgb(60,60,40)"/>
  <rect x="368" y="0" width="16" height="16" fill="rgb(60,60,40)"/>
  <rect x="384" y="0" width="16" height="16" fill="rgb(220,230,255)"/>
  <rect x="400" y="0" width="16" height="16" fill="rgb(60,60,40)"/>
  <rect x="416" y="0" width="16" height="16" fill="rgb(60,60,40)"/>
  <rect x="432" y="0" width="16" height="16" fill="rgb(60,60,40)"/>
  <rect x="32" y="16" width="16" height="16" fill="rgb(220,230,255)"/>
  <rect x="128" y="16" width="16" height="16" fill="rgb(220,230,255)"/>
  <rect x="224" y="16" width="16" height="16" fill="rgb(220,230,255)"/>
  <rect x="320" y="16" width="16" height="16" fill="rgb(60,60,40)"/>
  <rect x="336" y="16" width="16" height="16" fill="rgb(60,60,40)"/>
  <rect x="352" y="16" width="16" height="16" fill="rgb(220,230,255)"/>
  <rect x="368" y="16" width="16" height="16" fill="rgb(240,240,200)"/>
  <rect x="384" y="16" width="16" height="16" fill="rgb(240,240,200)"/>
  <rect x="400" y="16" width="16" height="16" fill="rgb(240,240,200)"/>
  <rect x="416" y="16" width="16" height="16" fill="rgb(60,60,40)"/>
  <rect x="432" y="16" width="16" height="16" fill="rgb(60,60,40)"/>
  <rect x="448" y="16" width="16" height="16" fill="rgb(220,230,255)"/>
  <rect x="80" y="32" width="16" height="16" fill="rgb(220,230,255)"/>
  <rect x="288" y="32" width="16" height="16" fill="rgb(220,230,255)"/>
  <rect x="304" y="32" width="16" height="16" fill="rgb(60,60,40)"/>
  <rect x="320" y="32" width="16" height="16" fill="rgb(60,60,40)"/>
  <rect x="336" y="32" width="16" height="16" fill="rgb(60,60,40)"/>
  <rect x="352" y="32" width="16" height="16" fill="rgb(240,240,200)"/>
  <rect x="368" y="32" width="16" height="16" fill="rgb(240,240,200)"/>
  <rect x="384" y="32" width="16" height="16" fill="rgb(240,240,200)"/>
  <rect x="400" y="32" width="16" height="16" fill="rgb(240,240,200)"/>
  <rect x="416" y="32" width="16" height="16" fill="rgb(240,240,200)"/>
  <rect x="432" y="32" width="16" height="16" fill="rgb(60,60,40)"/>
  <rect x="448" y="32" width="16" height="16" fill="rgb(60,60,40)"/>
  <rect x="464" y="32" width="16" height="16" fill="rgb(60,60,40)"/>
  <rect x="176" y="48" width="16" height="16" fill="rgb(220,230,255)"/>
  <rect x="288" y="48" width="16" height="16" fill="rgb(28,32,50)"/>
  <rect x="304" y="48" width="16" height="16" fill="rgb(28,32,50)"/>
  <rect x="320" y="48" width="16" height="16" fill="rgb(28,32,50)"/>
  <rect x="336" y="48" width="16" height="16" fill="rgb(28,32,50)"/>
  <rect x="352" y="48" width="16" height="16" fill="rgb(28,32,50)"/>
  <rect x="368" y="48" width="16" height="16" fill="rgb(28,32,50)"/>
  <rect x="384" y="48" width="16" height="16" fill="rgb(255,255,230)"/>
  <rect x="400" y="48" width="16" height="16" fill="rgb(255,255,230)"/>
  <rect x="416" y="48" width="16" height="16" fill="rgb(240,240,200)"/>
  <rect x="432" y="48" width="16" height="16" fill="rgb(240,240,200)"/>
  <rect x="448" y="48" width="16" height="16" fill="rgb(60,60,40)"/>
  <rect x="464" y="48" width="16" height="16" fill="rgb(220,230,255)"/>
  <rect x="48" y="64" width="16" height="16" fill="rgb(220,230,255)"/>
  <rect x="304" y="64" width="16" height="16" fill="rgb(28,32,50)"/>
  <rect x="320" y="64" width="16" height="16" fill="rgb(28,32,50)"/>
  <rect x="336" y="64" width="16" height="16" fill="rgb(28,32,50)"/>
  <rect x="352" y="64" width="16" height="16" fill="rgb(28,32,50)"/>
  <rect x="368" y="64" width="16" height="16" fill="rgb(28,32,50)"/>
  <rect x="384" y="64" width="16" height="16" fill="rgb(28,32,50)"/>
  <rect x="400" y="64" width="16" height="16" fill="rgb(28,32,50)"/>
  <rect x="416" y="64" width="16" height="16" fill="rgb(240,240,200)"/>
  <rect x="432" y="64" width="16" height="16" fill="rgb(240,240,200)"/>
  <rect x="448" y="64" width="16" height="16" fill="rgb(60,60,40)"/>
  <rect x="464" y="64" width="16" height="16" fill="rgb(60,60,40)"/>
  <rect x="112" y="80" width="16" height="16" fill="rgb(220,230,255)"/>
  <rect x="304" y="80" width="16" height="16" fill="rgb(60,60,40)"/>
  <rect x="320" y="80" width="16" height="16" fill="rgb(60,60,40)"/>
  <rect x="336" y="80" width="16" height="16" fill="rgb(240,240,200)"/>
  <rect x="352" y="80" width="16" height="16" fill="rgb(240,240,200)"/>
  <rect x="368" y="80" width="16" height="16" fill="rgb(255,255,230)"/>
  <rect x="384" y="80" width="16" height="16" fill="rgb(255,255,230)"/>
  <rect x="400" y="80" width="16" height="16" fill="rgb(255,255,230)"/>
  <rect x="416" y="80" width="16" height="16" fill="rgb(240,240,200)"/>
  <rect x="432" y="80" width="16" height="16" fill="rgb(240,240,200)"/>
  <rect x="448" y="80" width="16" height="16" fill="rgb(28,32,50)"/>
  <rect x="464" y="80" width="16" height="16" fill="rgb(28,32,50)"/>
  <rect x="480" y="80" width="16" height="16" fill="rgb(28,32,50)"/>
  <rect x="496" y="80" width="16" height="16" fill="rgb(28,32,50)"/>
  <rect x="208" y="96" width="16" height="16" fill="rgb(220,230,255)"/>
  <rect x="304" y="96" width="16" height="16" fill="rgb(60,60,40)"/>
  <rect x="320" y="96" width="16" height="16" fill="rgb(60,60,40)"/>
  <rect x="336" y="96" width="16" height="16" fill="rgb(60,60,40)"/>
  <rect x="352" y="96" width="16" height="16" fill="rgb(240,240,200)"/>
  <rect x="368" y="96" width="16" height="16" fill="rgb(240,240,200)"/>
  <rect x="384" y="96" width="16" height="16" fill="rgb(240,240,200)"/>
  <rect x="400" y="96" width="16" height="16" fill="rgb(240,240,200)"/>
  <rect x="416" y="96" width="16" height="16" fill="rgb(240,240,200)"/>
  <rect x="432" y="96" width="16" height="16" fill="rgb(60,60,40)"/>
  <rect x="448" y="96" width="16" height="16" fill="rgb(60,60,40)"/>
  <rect x="464" y="96" width="16" height="16" fill="rgb(28,32,50)"/>
  <rect x="480" y="96" width="16" height="16" fill="rgb(28,32,50)"/>
  <rect x="496" y="96" width="16" height="16" fill="rgb(28,32,50)"/>
  <rect x="0" y="112" width="16" height="16" fill="rgb(20,55,22)"/>
  <rect x="16" y="112" width="16" height="16" fill="rgb(20,55,22)"/>
  <rect x="32" y="112" width="16" height="16" fill="rgb(20,55,22)"/>
  <rect x="320" y="112" width="16" height="16" fill="rgb(60,60,40)"/>
  <rect x="336" y="112" width="16" height="16" fill="rgb(60,60,40)"/>
  <rect x="352" y="112" width="16" height="16" fill="rgb(60,60,40)"/>
  <rect x="368" y="112" width="16" height="16" fill="rgb(240,240,200)"/>
  <rect x="384" y="112" width="16" height="16" fill="rgb(240,240,200)"/>
  <rect x="400" y="112" width="16" height="16" fill="rgb(240,240,200)"/>
  <rect x="416" y="112" width="16" height="16" fill="rgb(60,60,40)"/>
  <rect x="432" y="112" width="16" height="16" fill="rgb(60,60,40)"/>
  <rect x="448" y="112" width="16" height="16" fill="rgb(60,60,40)"/>
  <rect x="32" y="128" width="16" height="16" fill="rgb(20,55,22)"/>
  <rect x="48" y="128" width="16" height="16" fill="rgb(20,55,22)"/>
  <rect x="64" y="128" width="16" height="16" fill="rgb(20,55,22)"/>
  <rect x="224" y="128" width="16" height="16" fill="rgb(55,55,65)"/>
  <rect x="336" y="128" width="16" height="16" fill="rgb(60,60,40)"/>
  <rect x="352" y="128" width="16" height="16" fill="rgb(60,60,40)"/>
  <rect x="368" y="128" width="16" height="16" fill="rgb(60,60,40)"/>
  <rect x="384" y="128" width="16" height="16" fill="rgb(60,60,40)"/>
  <rect x="400" y="128" width="16" height="16" fill="rgb(20,55,22)"/>
  <rect x="416" y="128" width="16" height="16" fill="rgb(20,55,22)"/>
  <rect x="432" y="128" width="16" height="16" fill="rgb(20,55,22)"/>
  <rect x="0" y="144" width="16" height="16" fill="rgb(12,38,16)"/>
  <rect x="16" y="144" width="16" height="16" fill="rgb(12,38,16)"/>
  <rect x="32" y="144" width="16" height="16" fill="rgb(12,38,16)"/>
  <rect x="48" y="144" width="16" height="16" fill="rgb(20,55,22)"/>
  <rect x="208" y="144" width="16" height="16" fill="rgb(55,55,65)"/>
  <rect x="240" y="144" width="16" height="16" fill="rgb(55,55,65)"/>
  <rect x="352" y="144" width="16" height="16" fill="rgb(60,60,40)"/>
  <rect x="368" y="144" width="16" height="16" fill="rgb(60,60,40)"/>
  <rect x="384" y="144" width="16" height="16" fill="rgb(60,60,40)"/>
  <rect x="400" y="144" width="16" height="16" fill="rgb(60,60,40)"/>
  <rect x="416" y="144" width="16" height="16" fill="rgb(60,60,40)"/>
  <rect x="432" y="144" width="16" height="16" fill="rgb(20,55,22)"/>
  <rect x="448" y="144" width="16" height="16" fill="rgb(20,55,22)"/>
  <rect x="464" y="144" width="16" height="16" fill="rgb(20,55,22)"/>
  <rect x="0" y="160" width="16" height="16" fill="rgb(8,22,10)"/>
  <rect x="16" y="160" width="16" height="16" fill="rgb(8,22,10)"/>
  <rect x="32" y="160" width="16" height="16" fill="rgb(8,22,10)"/>
  <rect x="48" y="160" width="16" height="16" fill="rgb(12,38,16)"/>
  <rect x="64" y="160" width="16" height="16" fill="rgb(12,38,16)"/>
  <rect x="80" y="160" width="16" height="16" fill="rgb(20,55,22)"/>
  <rect x="96" y="160" width="16" height="16" fill="rgb(20,55,22)"/>
  <rect x="112" y="160" width="16" height="16" fill="rgb(20,55,22)"/>
  <rect x="128" y="160" width="16" height="16" fill="rgb(20,55,22)"/>
  <rect x="224" y="160" width="16" height="16" fill="rgb(55,55,65)"/>
  <rect x="384" y="160" width="16" height="16" fill="rgb(20,55,22)"/>
  <rect x="400" y="160" width="16" height="16" fill="rgb(12,38,16)"/>
  <rect x="416" y="160" width="16" height="16" fill="rgb(12,38,16)"/>
  <rect x="432" y="160" width="16" height="16" fill="rgb(12,38,16)"/>
  <rect x="448" y="160" width="16" height="16" fill="rgb(20,55,22)"/>
  <rect x="0" y="176" width="16" height="16" fill="rgb(12,38,16)"/>
  <rect x="16" y="176" width="16" height="16" fill="rgb(12,38,16)"/>
  <rect x="32" y="176" width="16" height="16" fill="rgb(12,38,16)"/>
  <rect x="48" y="176" width="16" height="16" fill="rgb(12,38,16)"/>
  <rect x="64" y="176" width="16" height="16" fill="rgb(20,55,22)"/>
  <rect x="80" y="176" width="16" height="16" fill="rgb(12,38,16)"/>
  <rect x="224" y="176" width="16" height="16" fill="rgb(50,32,16)"/>
  <rect x="240" y="176" width="16" height="16" fill="rgb(50,32,16)"/>
  <rect x="384" y="176" width="16" height="16" fill="rgb(12,38,16)"/>
  <rect x="400" y="176" width="16" height="16" fill="rgb(8,22,10)"/>
  <rect x="416" y="176" width="16" height="16" fill="rgb(8,22,10)"/>
  <rect x="432" y="176" width="16" height="16" fill="rgb(8,22,10)"/>
  <rect x="448" y="176" width="16" height="16" fill="rgb(12,38,16)"/>
  <rect x="464" y="176" width="16" height="16" fill="rgb(20,55,22)"/>
  <rect x="480" y="176" width="16" height="16" fill="rgb(20,55,22)"/>
  <rect x="496" y="176" width="16" height="16" fill="rgb(20,55,22)"/>
  <rect x="0" y="192" width="16" height="16" fill="rgb(8,22,10)"/>
  <rect x="16" y="192" width="16" height="16" fill="rgb(8,22,10)"/>
  <rect x="32" y="192" width="16" height="16" fill="rgb(8,22,10)"/>
  <rect x="48" y="192" width="16" height="16" fill="rgb(8,22,10)"/>
  <rect x="64" y="192" width="16" height="16" fill="rgb(12,38,16)"/>
  <rect x="80" y="192" width="16" height="16" fill="rgb(20,55,22)"/>
  <rect x="96" y="192" width="16" height="16" fill="rgb(12,38,16)"/>
  <rect x="112" y="192" width="16" height="16" fill="rgb(12,38,16)"/>
  <rect x="128" y="192" width="16" height="16" fill="rgb(12,38,16)"/>
  <rect x="144" y="192" width="16" height="16" fill="rgb(20,55,22)"/>
  <rect x="224" y="192" width="16" height="16" fill="rgb(50,32,16)"/>
  <rect x="240" y="192" width="16" height="16" fill="rgb(50,32,16)"/>
  <rect x="368" y="192" width="16" height="16" fill="rgb(20,55,22)"/>
  <rect x="384" y="192" width="16" height="16" fill="rgb(12,38,16)"/>
  <rect x="400" y="192" width="16" height="16" fill="rgb(12,38,16)"/>
  <rect x="416" y="192" width="16" height="16" fill="rgb(12,38,16)"/>
  <rect x="432" y="192" width="16" height="16" fill="rgb(12,38,16)"/>
  <rect x="448" y="192" width="16" height="16" fill="rgb(12,38,16)"/>
  <rect x="464" y="192" width="16" height="16" fill="rgb(20,55,22)"/>
  <rect x="480" y="192" width="16" height="16" fill="rgb(12,38,16)"/>
  <rect x="0" y="208" width="16" height="16" fill="rgb(12,38,16)"/>
  <rect x="16" y="208" width="16" height="16" fill="rgb(35,22,12)"/>
  <rect x="32" y="208" width="16" height="16" fill="rgb(8,22,10)"/>
  <rect x="48" y="208" width="16" height="16" fill="rgb(8,22,10)"/>
  <rect x="64" y="208" width="16" height="16" fill="rgb(8,22,10)"/>
  <rect x="80" y="208" width="16" height="16" fill="rgb(12,38,16)"/>
  <rect x="96" y="208" width="16" height="16" fill="rgb(8,22,10)"/>
  <rect x="112" y="208" width="16" height="16" fill="rgb(8,22,10)"/>
  <rect x="128" y="208" width="16" height="16" fill="rgb(8,22,10)"/>
  <rect x="144" y="208" width="16" height="16" fill="rgb(12,38,16)"/>
  <rect x="224" y="208" width="16" height="16" fill="rgb(50,32,16)"/>
  <rect x="240" y="208" width="16" height="16" fill="rgb(50,32,16)"/>
  <rect x="368" y="208" width="16" height="16" fill="rgb(12,38,16)"/>
  <rect x="384" y="208" width="16" height="16" fill="rgb(8,22,10)"/>
  <rect x="400" y="208" width="16" height="16" fill="rgb(8,22,10)"/>
  <rect x="416" y="208" width="16" height="16" fill="rgb(8,22,10)"/>
  <rect x="432" y="208" width="16" height="16" fill="rgb(8,22,10)"/>
  <rect x="448" y="208" width="16" height="16" fill="rgb(8,22,10)"/>
  <rect x="464" y="208" width="16" height="16" fill="rgb(12,38,16)"/>
  <rect x="480" y="208" width="16" height="16" fill="rgb(12,38,16)"/>
  <rect x="496" y="208" width="16" height="16" fill="rgb(12,38,16)"/>
  <rect x="0" y="224" width="16" height="16" fill="rgb(12,38,16)"/>
  <rect x="16" y="224" width="16" height="16" fill="rgb(35,22,12)"/>
  <rect x="32" y="224" width="16" height="16" fill="rgb(12,38,16)"/>
  <rect x="48" y="224" width="16" height="16" fill="rgb(12,38,16)"/>
  <rect x="64" y="224" width="16" height="16" fill="rgb(20,55,22)"/>
  <rect x="80" y="224" width="16" height="16" fill="rgb(12,38,16)"/>
  <rect x="96" y="224" width="16" height="16" fill="rgb(12,38,16)"/>
  <rect x="112" y="224" width="16" height="16" fill="rgb(12,38,16)"/>
  <rect x="128" y="224" width="16" height="16" fill="rgb(12,38,16)"/>
  <rect x="144" y="224" width="16" height="16" fill="rgb(12,38,16)"/>
  <rect x="160" y="224" width="16" height="16" fill="rgb(20,55,22)"/>
  <rect x="224" y="224" width="16" height="16" fill="rgb(50,32,16)"/>
  <rect x="240" y="224" width="16" height="16" fill="rgb(50,32,16)"/>
  <rect x="400" y="224" width="16" height="16" fill="rgb(12,38,16)"/>
  <rect x="416" y="224" width="16" height="16" fill="rgb(35,22,12)"/>
  <rect x="432" y="224" width="16" height="16" fill="rgb(8,22,10)"/>
  <rect x="448" y="224" width="16" height="16" fill="rgb(12,38,16)"/>
  <rect x="464" y="224" width="16" height="16" fill="rgb(8,22,10)"/>
  <rect x="480" y="224" width="16" height="16" fill="rgb(8,22,10)"/>
  <rect x="496" y="224" width="16" height="16" fill="rgb(8,22,10)"/>
  <rect x="0" y="240" width="16" height="16" fill="rgb(8,22,10)"/>
  <rect x="16" y="240" width="16" height="16" fill="rgb(8,22,10)"/>
  <rect x="32" y="240" width="16" height="16" fill="rgb(8,22,10)"/>
  <rect x="48" y="240" width="16" height="16" fill="rgb(8,22,10)"/>
  <rect x="64" y="240" width="16" height="16" fill="rgb(12,38,16)"/>
  <rect x="80" y="240" width="16" height="16" fill="rgb(8,22,10)"/>
  <rect x="96" y="240" width="16" height="16" fill="rgb(8,22,10)"/>
  <rect x="112" y="240" width="16" height="16" fill="rgb(8,22,10)"/>
  <rect x="128" y="240" width="16" height="16" fill="rgb(8,22,10)"/>
  <rect x="144" y="240" width="16" height="16" fill="rgb(8,22,10)"/>
  <rect x="160" y="240" width="16" height="16" fill="rgb(12,38,16)"/>
  <rect x="224" y="240" width="16" height="16" fill="rgb(50,32,16)"/>
  <rect x="240" y="240" width="16" height="16" fill="rgb(50,32,16)"/>
  <rect x="256" y="240" width="16" height="16" fill="rgb(200,210,220)"/>
  <rect x="384" y="240" width="16" height="16" fill="rgb(20,55,22)"/>
  <rect x="400" y="240" width="16" height="16" fill="rgb(12,38,16)"/>
  <rect x="416" y="240" width="16" height="16" fill="rgb(35,22,12)"/>
  <rect x="432" y="240" width="16" height="16" fill="rgb(20,55,22)"/>
  <rect x="448" y="240" width="16" height="16" fill="rgb(12,38,16)"/>
  <rect x="464" y="240" width="16" height="16" fill="rgb(12,38,16)"/>
  <rect x="480" y="240" width="16" height="16" fill="rgb(12,38,16)"/>
  <rect x="496" y="240" width="16" height="16" fill="rgb(12,38,16)"/>
  <rect x="48" y="256" width="16" height="16" fill="rgb(35,22,12)"/>
  <rect x="112" y="256" width="16" height="16" fill="rgb(35,22,12)"/>
  <rect x="208" y="256" width="16" height="16" fill="rgb(200,210,220)"/>
  <rect x="224" y="256" width="16" height="16" fill="rgb(30,18,8)"/>
  <rect x="240" y="256" width="16" height="16" fill="rgb(55,36,18)"/>
  <rect x="256" y="256" width="16" height="16" fill="rgb(55,36,18)"/>
  <rect x="272" y="256" width="16" height="16" fill="rgb(200,210,220)"/>
  <rect x="384" y="256" width="16" height="16" fill="rgb(12,38,16)"/>
  <rect x="400" y="256" width="16" height="16" fill="rgb(8,22,10)"/>
  <rect x="416" y="256" width="16" height="16" fill="rgb(8,22,10)"/>
  <rect x="432" y="256" width="16" height="16" fill="rgb(12,38,16)"/>
  <rect x="448" y="256" width="16" height="16" fill="rgb(8,22,10)"/>
  <rect x="464" y="256" width="16" height="16" fill="rgb(8,22,10)"/>
  <rect x="480" y="256" width="16" height="16" fill="rgb(8,22,10)"/>
  <rect x="496" y="256" width="16" height="16" fill="rgb(8,22,10)"/>
  <rect x="48" y="272" width="16" height="16" fill="rgb(35,22,12)"/>
  <rect x="112" y="272" width="16" height="16" fill="rgb(35,22,12)"/>
  <rect x="192" y="272" width="16" height="16" fill="rgb(200,210,220)"/>
  <rect x="208" y="272" width="16" height="16" fill="rgb(30,18,8)"/>
  <rect x="224" y="272" width="16" height="16" fill="rgb(30,18,8)"/>
  <rect x="240" y="272" width="16" height="16" fill="rgb(55,36,18)"/>
  <rect x="256" y="272" width="16" height="16" fill="rgb(55,36,18)"/>
  <rect x="272" y="272" width="16" height="16" fill="rgb(55,36,18)"/>
  <rect x="288" y="272" width="16" height="16" fill="rgb(200,210,220)"/>
  <rect x="448" y="272" width="16" height="16" fill="rgb(35,22,12)"/>
  <rect x="480" y="272" width="16" height="16" fill="rgb(35,22,12)"/>
  <rect x="176" y="288" width="16" height="16" fill="rgb(200,210,220)"/>
  <rect x="192" y="288" width="16" height="16" fill="rgb(30,18,8)"/>
  <rect x="208" y="288" width="16" height="16" fill="rgb(30,18,8)"/>
  <rect x="224" y="288" width="16" height="16" fill="rgb(30,18,8)"/>
  <rect x="240" y="288" width="16" height="16" fill="rgb(55,36,18)"/>
  <rect x="256" y="288" width="16" height="16" fill="rgb(55,36,18)"/>
  <rect x="272" y="288" width="16" height="16" fill="rgb(55,36,18)"/>
  <rect x="288" y="288" width="16" height="16" fill="rgb(55,36,18)"/>
  <rect x="304" y="288" width="16" height="16" fill="rgb(200,210,220)"/>
  <rect x="320" y="288" width="16" height="16" fill="rgb(90,58,32)"/>
  <rect x="448" y="288" width="16" height="16" fill="rgb(35,22,12)"/>
  <rect x="480" y="288" width="16" height="16" fill="rgb(35,22,12)"/>
  <rect x="176" y="304" width="16" height="16" fill="rgb(45,28,14)"/>
  <rect x="192" y="304" width="16" height="16" fill="rgb(200,160,60)"/>
  <rect x="208" y="304" width="16" height="16" fill="rgb(200,160,60)"/>
  <rect x="224" y="304" width="16" height="16" fill="rgb(200,160,60)"/>
  <rect x="240" y="304" width="16" height="16" fill="rgb(200,160,60)"/>
  <rect x="256" y="304" width="16" height="16" fill="rgb(200,160,60)"/>
  <rect x="272" y="304" width="16" height="16" fill="rgb(200,160,60)"/>
  <rect x="288" y="304" width="16" height="16" fill="rgb(200,160,60)"/>
  <rect x="304" y="304" width="16" height="16" fill="rgb(200,160,60)"/>
  <rect x="320" y="304" width="16" height="16" fill="rgb(90,58,32)"/>
  <rect x="176" y="320" width="16" height="16" fill="rgb(45,28,14)"/>
  <rect x="192" y="320" width="16" height="16" fill="rgb(200,160,60)"/>
  <rect x="208" y="320" width="16" height="16" fill="rgb(255,230,140)"/>
  <rect x="224" y="320" width="16" height="16" fill="rgb(35,20,8)"/>
  <rect x="240" y="320" width="16" height="16" fill="rgb(35,20,8)"/>
  <rect x="256" y="320" width="16" height="16" fill="rgb(55,36,16)"/>
  <rect x="272" y="320" width="16" height="16" fill="rgb(255,230,140)"/>
  <rect x="288" y="320" width="16" height="16" fill="rgb(240,200,100)"/>
  <rect x="304" y="320" width="16" height="16" fill="rgb(200,160,60)"/>
  <rect x="320" y="320" width="16" height="16" fill="rgb(90,58,32)"/>
  <rect x="176" y="336" width="16" height="16" fill="rgb(45,28,14)"/>
  <rect x="192" y="336" width="16" height="16" fill="rgb(200,160,60)"/>
  <rect x="208" y="336" width="16" height="16" fill="rgb(240,200,100)"/>
  <rect x="224" y="336" width="16" height="16" fill="rgb(35,20,8)"/>
  <rect x="240" y="336" width="16" height="16" fill="rgb(35,20,8)"/>
  <rect x="256" y="336" width="16" height="16" fill="rgb(55,36,16)"/>
  <rect x="272" y="336" width="16" height="16" fill="rgb(240,200,100)"/>
  <rect x="288" y="336" width="16" height="16" fill="rgb(240,200,100)"/>
  <rect x="304" y="336" width="16" height="16" fill="rgb(200,160,60)"/>
  <rect x="320" y="336" width="16" height="16" fill="rgb(90,58,32)"/>
  <rect x="176" y="352" width="16" height="16" fill="rgb(45,28,14)"/>
  <rect x="192" y="352" width="16" height="16" fill="rgb(200,160,60)"/>
  <rect x="208" y="352" width="16" height="16" fill="rgb(200,160,60)"/>
  <rect x="224" y="352" width="16" height="16" fill="rgb(35,20,8)"/>
  <rect x="240" y="352" width="16" height="16" fill="rgb(35,20,8)"/>
  <rect x="256" y="352" width="16" height="16" fill="rgb(55,36,16)"/>
  <rect x="272" y="352" width="16" height="16" fill="rgb(200,160,60)"/>
  <rect x="288" y="352" width="16" height="16" fill="rgb(200,160,60)"/>
  <rect x="304" y="352" width="16" height="16" fill="rgb(200,160,60)"/>
  <rect x="320" y="352" width="16" height="16" fill="rgb(90,58,32)"/>
  <rect x="176" y="368" width="16" height="16" fill="rgb(45,28,14)"/>
  <rect x="192" y="368" width="16" height="16" fill="rgb(60,38,20)"/>
  <rect x="208" y="368" width="16" height="16" fill="rgb(60,38,20)"/>
  <rect x="224" y="368" width="16" height="16" fill="rgb(35,20,8)"/>
  <rect x="240" y="368" width="16" height="16" fill="rgb(35,20,8)"/>
  <rect x="256" y="368" width="16" height="16" fill="rgb(240,240,200)"/>
  <rect x="272" y="368" width="16" height="16" fill="rgb(60,38,20)"/>
  <rect x="288" y="368" width="16" height="16" fill="rgb(60,38,20)"/>
  <rect x="304" y="368" width="16" height="16" fill="rgb(90,58,32)"/>
  <rect x="320" y="368" width="16" height="16" fill="rgb(90,58,32)"/>
  <rect x="176" y="384" width="16" height="16" fill="rgb(45,28,14)"/>
  <rect x="192" y="384" width="16" height="16" fill="rgb(60,38,20)"/>
  <rect x="208" y="384" width="16" height="16" fill="rgb(60,38,20)"/>
  <rect x="224" y="384" width="16" height="16" fill="rgb(35,20,8)"/>
  <rect x="240" y="384" width="16" height="16" fill="rgb(35,20,8)"/>
  <rect x="256" y="384" width="16" height="16" fill="rgb(55,36,16)"/>
  <rect x="272" y="384" width="16" height="16" fill="rgb(60,38,20)"/>
  <rect x="288" y="384" width="16" height="16" fill="rgb(60,38,20)"/>
  <rect x="304" y="384" width="16" height="16" fill="rgb(90,58,32)"/>
  <rect x="320" y="384" width="16" height="16" fill="rgb(90,58,32)"/>
  <rect x="0" y="400" width="16" height="16" fill="rgb(18,28,16)"/>
  <rect x="16" y="400" width="16" height="16" fill="rgb(18,28,16)"/>
  <rect x="32" y="400" width="16" height="16" fill="rgb(18,28,16)"/>
  <rect x="48" y="400" width="16" height="16" fill="rgb(18,28,16)"/>
  <rect x="64" y="400" width="16" height="16" fill="rgb(18,28,16)"/>
  <rect x="80" y="400" width="16" height="16" fill="rgb(18,28,16)"/>
  <rect x="96" y="400" width="16" height="16" fill="rgb(18,28,16)"/>
  <rect x="112" y="400" width="16" height="16" fill="rgb(18,28,16)"/>
  <rect x="128" y="400" width="16" height="16" fill="rgb(18,28,16)"/>
  <rect x="144" y="400" width="16" height="16" fill="rgb(18,28,16)"/>
  <rect x="160" y="400" width="16" height="16" fill="rgb(18,28,16)"/>
  <rect x="176" y="400" width="16" height="16" fill="rgb(18,28,16)"/>
  <rect x="192" y="400" width="16" height="16" fill="rgb(200,160,60)"/>
  <rect x="208" y="400" width="16" height="16" fill="rgb(200,160,60)"/>
  <rect x="224" y="400" width="16" height="16" fill="rgb(200,160,60)"/>
  <rect x="240" y="400" width="16" height="16" fill="rgb(200,160,60)"/>
  <rect x="256" y="400" width="16" height="16" fill="rgb(200,160,60)"/>
  <rect x="272" y="400" width="16" height="16" fill="rgb(200,160,60)"/>
  <rect x="288" y="400" width="16" height="16" fill="rgb(200,160,60)"/>
  <rect x="304" y="400" width="16" height="16" fill="rgb(200,160,60)"/>
  <rect x="320" y="400" width="16" height="16" fill="rgb(18,28,16)"/>
  <rect x="336" y="400" width="16" height="16" fill="rgb(18,28,16)"/>
  <rect x="352" y="400" width="16" height="16" fill="rgb(18,28,16)"/>
  <rect x="368" y="400" width="16" height="16" fill="rgb(18,28,16)"/>
  <rect x="384" y="400" width="16" height="16" fill="rgb(18,28,16)"/>
  <rect x="400" y="400" width="16" height="16" fill="rgb(18,28,16)"/>
  <rect x="416" y="400" width="16" height="16" fill="rgb(18,28,16)"/>
  <rect x="432" y="400" width="16" height="16" fill="rgb(18,28,16)"/>
  <rect x="448" y="400" width="16" height="16" fill="rgb(18,28,16)"/>
  <rect x="464" y="400" width="16" height="16" fill="rgb(18,28,16)"/>
  <rect x="480" y="400" width="16" height="16" fill="rgb(18,28,16)"/>
  <rect x="496" y="400" width="16" height="16" fill="rgb(18,28,16)"/>
  <rect x="0" y="416" width="16" height="16" fill="rgb(18,28,16)"/>
  <rect x="16" y="416" width="16" height="16" fill="rgb(18,28,16)"/>
  <rect x="32" y="416" width="16" height="16" fill="rgb(18,28,16)"/>
  <rect x="48" y="416" width="16" height="16" fill="rgb(18,28,16)"/>
  <rect x="64" y="416" width="16" height="16" fill="rgb(18,28,16)"/>
  <rect x="80" y="416" width="16" height="16" fill="rgb(18,28,16)"/>
  <rect x="96" y="416" width="16" height="16" fill="rgb(18,28,16)"/>
  <rect x="112" y="416" width="16" height="16" fill="rgb(18,28,16)"/>
  <rect x="128" y="416" width="16" height="16" fill="rgb(18,28,16)"/>
  <rect x="144" y="416" width="16" height="16" fill="rgb(18,28,16)"/>
  <rect x="160" y="416" width="16" height="16" fill="rgb(18,28,16)"/>
  <rect x="176" y="416" width="16" height="16" fill="rgb(18,28,16)"/>
  <rect x="192" y="416" width="16" height="16" fill="rgb(18,28,16)"/>
  <rect x="208" y="416" width="16" height="16" fill="rgb(18,28,16)"/>
  <rect x="224" y="416" width="16" height="16" fill="rgb(18,28,16)"/>
  <rect x="240" y="416" width="16" height="16" fill="rgb(18,28,16)"/>
  <rect x="256" y="416" width="16" height="16" fill="rgb(18,28,16)"/>
  <rect x="272" y="416" width="16" height="16" fill="rgb(18,28,16)"/>
  <rect x="288" y="416" width="16" height="16" fill="rgb(18,28,16)"/>
  <rect x="304" y="416" width="16" height="16" fill="rgb(18,28,16)"/>
  <rect x="320" y="416" width="16" height="16" fill="rgb(18,28,16)"/>
  <rect x="336" y="416" width="16" height="16" fill="rgb(18,28,16)"/>
  <rect x="352" y="416" width="16" height="16" fill="rgb(18,28,16)"/>
  <rect x="368" y="416" width="16" height="16" fill="rgb(18,28,16)"/>
  <rect x="384" y="416" width="16" height="16" fill="rgb(18,28,16)"/>
  <rect x="400" y="416" width="16" height="16" fill="rgb(18,28,16)"/>
  <rect x="416" y="416" width="16" height="16" fill="rgb(18,28,16)"/>
  <rect x="432" y="416" width="16" height="16" fill="rgb(18,28,16)"/>
  <rect x="448" y="416" width="16" height="16" fill="rgb(18,28,16)"/>
  <rect x="464" y="416" width="16" height="16" fill="rgb(18,28,16)"/>
  <rect x="480" y="416" width="16" height="16" fill="rgb(18,28,16)"/>
  <rect x="496" y="416" width="16" height="16" fill="rgb(18,28,16)"/>
  <rect x="0" y="432" width="16" height="16" fill="rgb(24,38,20)"/>
  <rect x="16" y="432" width="16" height="16" fill="rgb(24,38,20)"/>
  <rect x="32" y="432" width="16" height="16" fill="rgb(24,38,20)"/>
  <rect x="48" y="432" width="16" height="16" fill="rgb(24,38,20)"/>
  <rect x="64" y="432" width="16" height="16" fill="rgb(24,38,20)"/>
  <rect x="80" y="432" width="16" height="16" fill="rgb(24,38,20)"/>
  <rect x="96" y="432" width="16" height="16" fill="rgb(24,38,20)"/>
  <rect x="112" y="432" width="16" height="16" fill="rgb(24,38,20)"/>
  <rect x="128" y="432" width="16" height="16" fill="rgb(24,38,20)"/>
  <rect x="144" y="432" width="16" height="16" fill="rgb(24,38,20)"/>
  <rect x="160" y="432" width="16" height="16" fill="rgb(24,38,20)"/>
  <rect x="176" y="432" width="16" height="16" fill="rgb(24,38,20)"/>
  <rect x="192" y="432" width="16" height="16" fill="rgb(24,38,20)"/>
  <rect x="208" y="432" width="16" height="16" fill="rgb(24,38,20)"/>
  <rect x="224" y="432" width="16" height="16" fill="rgb(24,38,20)"/>
  <rect x="240" y="432" width="16" height="16" fill="rgb(24,38,20)"/>
  <rect x="256" y="432" width="16" height="16" fill="rgb(24,38,20)"/>
  <rect x="272" y="432" width="16" height="16" fill="rgb(24,38,20)"/>
  <rect x="288" y="432" width="16" height="16" fill="rgb(24,38,20)"/>
  <rect x="304" y="432" width="16" height="16" fill="rgb(24,38,20)"/>
  <rect x="320" y="432" width="16" height="16" fill="rgb(24,38,20)"/>
  <rect x="336" y="432" width="16" height="16" fill="rgb(24,38,20)"/>
  <rect x="352" y="432" width="16" height="16" fill="rgb(24,38,20)"/>
  <rect x="368" y="432" width="16" height="16" fill="rgb(24,38,20)"/>
  <rect x="384" y="432" width="16" height="16" fill="rgb(24,38,20)"/>
  <rect x="400" y="432" width="16" height="16" fill="rgb(24,38,20)"/>
  <rect x="416" y="432" width="16" height="16" fill="rgb(24,38,20)"/>
  <rect x="432" y="432" width="16" height="16" fill="rgb(24,38,20)"/>
  <rect x="448" y="432" width="16" height="16" fill="rgb(24,38,20)"/>
  <rect x="464" y="432" width="16" height="16" fill="rgb(24,38,20)"/>
  <rect x="480" y="432" width="16" height="16" fill="rgb(24,38,20)"/>
  <rect x="496" y="432" width="16" height="16" fill="rgb(24,38,20)"/>
  <rect x="0" y="448" width="16" height="16" fill="rgb(18,28,16)"/>
  <rect x="16" y="448" width="16" height="16" fill="rgb(18,28,16)"/>
  <rect x="32" y="448" width="16" height="16" fill="rgb(18,28,16)"/>
  <rect x="48" y="448" width="16" height="16" fill="rgb(18,28,16)"/>
  <rect x="64" y="448" width="16" height="16" fill="rgb(18,28,16)"/>
  <rect x="80" y="448" width="16" height="16" fill="rgb(18,28,16)"/>
  <rect x="96" y="448" width="16" height="16" fill="rgb(18,28,16)"/>
  <rect x="112" y="448" width="16" height="16" fill="rgb(18,28,16)"/>
  <rect x="128" y="448" width="16" height="16" fill="rgb(18,28,16)"/>
  <rect x="144" y="448" width="16" height="16" fill="rgb(18,28,16)"/>
  <rect x="160" y="448" width="16" height="16" fill="rgb(18,28,16)"/>
  <rect x="176" y="448" width="16" height="16" fill="rgb(18,28,16)"/>
  <rect x="192" y="448" width="16" height="16" fill="rgb(18,28,16)"/>
  <rect x="208" y="448" width="16" height="16" fill="rgb(18,28,16)"/>
  <rect x="224" y="448" width="16" height="16" fill="rgb(18,28,16)"/>
  <rect x="240" y="448" width="16" height="16" fill="rgb(18,28,16)"/>
  <rect x="256" y="448" width="16" height="16" fill="rgb(18,28,16)"/>
  <rect x="272" y="448" width="16" height="16" fill="rgb(18,28,16)"/>
  <rect x="288" y="448" width="16" height="16" fill="rgb(18,28,16)"/>
  <rect x="304" y="448" width="16" height="16" fill="rgb(18,28,16)"/>
  <rect x="320" y="448" width="16" height="16" fill="rgb(18,28,16)"/>
  <rect x="336" y="448" width="16" height="16" fill="rgb(18,28,16)"/>
  <rect x="352" y="448" width="16" height="16" fill="rgb(18,28,16)"/>
  <rect x="368" y="448" width="16" height="16" fill="rgb(18,28,16)"/>
  <rect x="384" y="448" width="16" height="16" fill="rgb(18,28,16)"/>
  <rect x="400" y="448" width="16" height="16" fill="rgb(18,28,16)"/>
  <rect x="416" y="448" width="16" height="16" fill="rgb(18,28,16)"/>
  <rect x="432" y="448" width="16" height="16" fill="rgb(18,28,16)"/>
  <rect x="448" y="448" width="16" height="16" fill="rgb(18,28,16)"/>
  <rect x="464" y="448" width="16" height="16" fill="rgb(18,28,16)"/>
  <rect x="480" y="448" width="16" height="16" fill="rgb(18,28,16)"/>
  <rect x="496" y="448" width="16" height="16" fill="rgb(18,28,16)"/>
  <rect x="0" y="464" width="16" height="16" fill="rgb(18,28,16)"/>
  <rect x="16" y="464" width="16" height="16" fill="rgb(18,28,16)"/>
  <rect x="32" y="464" width="16" height="16" fill="rgb(18,28,16)"/>
  <rect x="48" y="464" width="16" height="16" fill="rgb(18,28,16)"/>
  <rect x="64" y="464" width="16" height="16" fill="rgb(18,28,16)"/>
  <rect x="80" y="464" width="16" height="16" fill="rgb(18,28,16)"/>
  <rect x="96" y="464" width="16" height="16" fill="rgb(18,28,16)"/>
  <rect x="112" y="464" width="16" height="16" fill="rgb(18,28,16)"/>
  <rect x="128" y="464" width="16" height="16" fill="rgb(18,28,16)"/>
  <rect x="144" y="464" width="16" height="16" fill="rgb(18,28,16)"/>
  <rect x="160" y="464" width="16" height="16" fill="rgb(18,28,16)"/>
  <rect x="176" y="464" width="16" height="16" fill="rgb(18,28,16)"/>
  <rect x="192" y="464" width="16" height="16" fill="rgb(18,28,16)"/>
  <rect x="208" y="464" width="16" height="16" fill="rgb(18,28,16)"/>
  <rect x="224" y="464" width="16" height="16" fill="rgb(18,28,16)"/>
  <rect x="240" y="464" width="16" height="16" fill="rgb(18,28,16)"/>
  <rect x="256" y="464" width="16" height="16" fill="rgb(18,28,16)"/>
  <rect x="272" y="464" width="16" height="16" fill="rgb(18,28,16)"/>
  <rect x="288" y="464" width="16" height="16" fill="rgb(18,28,16)"/>
  <rect x="304" y="464" width="16" height="16" fill="rgb(18,28,16)"/>
  <rect x="320" y="464" width="16" height="16" fill="rgb(18,28,16)"/>
  <rect x="336" y="464" width="16" height="16" fill="rgb(18,28,16)"/>
  <rect x="352" y="464" width="16" height="16" fill="rgb(18,28,16)"/>
  <rect x="368" y="464" width="16" height="16" fill="rgb(18,28,16)"/>
  <rect x="384" y="464" width="16" height="16" fill="rgb(18,28,16)"/>
  <rect x="400" y="464" width="16" height="16" fill="rgb(18,28,16)"/>
  <rect x="416" y="464" width="16" height="16" fill="rgb(18,28,16)"/>
  <rect x="432" y="464" width="16" height="16" fill="rgb(18,28,16)"/>
  <rect x="448" y="464" width="16" height="16" fill="rgb(18,28,16)"/>
  <rect x="464" y="464" width="16" height="16" fill="rgb(18,28,16)"/>
  <rect x="480" y="464" width="16" height="16" fill="rgb(18,28,16)"/>
  <rect x="496" y="464" width="16" height="16" fill="rgb(18,28,16)"/>
  <rect x="0" y="480" width="16" height="16" fill="rgb(18,28,16)"/>
  <rect x="16" y="480" width="16" height="16" fill="rgb(18,28,16)"/>
  <rect x="32" y="480" width="16" height="16" fill="rgb(18,28,16)"/>
  <rect x="48" y="480" width="16" height="16" fill="rgb(18,28,16)"/>
  <rect x="64" y="480" width="16" height="16" fill="rgb(18,28,16)"/>
  <rect x="80" y="480" width="16" height="16" fill="rgb(18,28,16)"/>
  <rect x="96" y="480" width="16" height="16" fill="rgb(18,28,16)"/>
  <rect x="112" y="480" width="16" height="16" fill="rgb(18,28,16)"/>
  <rect x="128" y="480" width="16" height="16" fill="rgb(18,28,16)"/>
  <rect x="144" y="480" width="16" height="16" fill="rgb(18,28,16)"/>
  <rect x="160" y="480" width="16" height="16" fill="rgb(18,28,16)"/>
  <rect x="176" y="480" width="16" height="16" fill="rgb(18,28,16)"/>
  <rect x="192" y="480" width="16" height="16" fill="rgb(18,28,16)"/>
  <rect x="208" y="480" width="16" height="16" fill="rgb(18,28,16)"/>
  <rect x="224" y="480" width="16" height="16" fill="rgb(18,28,16)"/>
  <rect x="240" y="480" width="16" height="16" fill="rgb(18,28,16)"/>
  <rect x="256" y="480" width="16" height="16" fill="rgb(18,28,16)"/>
  <rect x="272" y="480" width="16" height="16" fill="rgb(18,28,16)"/>
  <rect x="288" y="480" width="16" height="16" fill="rgb(18,28,16)"/>
  <rect x="304" y="480" width="16" height="16" fill="rgb(18,28,16)"/>
  <rect x="320" y="480" width="16" height="16" fill="rgb(18,28,16)"/>
  <rect x="336" y="480" width="16" height="16" fill="rgb(18,28,16)"/>
  <rect x="352" y="480" width="16" height="16" fill="rgb(18,28,16)"/>
  <rect x="368" y="480" width="16" height="16" fill="rgb(18,28,16)"/>
  <rect x="384" y="480" width="16" height="16" fill="rgb(18,28,16)"/>
  <rect x="400" y="480" width="16" height="16" fill="rgb(18,28,16)"/>
  <rect x="416" y="480" width="16" height="16" fill="rgb(18,28,16)"/>
  <rect x="432" y="480" width="16" height="16" fill="rgb(18,28,16)"/>
  <rect x="448" y="480" width="16" height="16" fill="rgb(18,28,16)"/>
  <rect x="464" y="480" width="16" height="16" fill="rgb(18,28,16)"/>
  <rect x="480" y="480" width="16" height="16" fill="rgb(18,28,16)"/>
  <rect x="496" y="480" width="16" height="16" fill="rgb(18,28,16)"/>
  <rect x="0" y="496" width="16" height="16" fill="rgb(18,28,16)"/>
  <rect x="16" y="496" width="16" height="16" fill="rgb(18,28,16)"/>
  <rect x="32" y="496" width="16" height="16" fill="rgb(18,28,16)"/>
  <rect x="48" y="496" width="16" height="16" fill="rgb(18,28,16)"/>
  <rect x="64" y="496" width="16" height="16" fill="rgb(18,28,16)"/>
  <rect x="80" y="496" width="16" height="16" fill="rgb(18,28,16)"/>
  <rect x="96" y="496" width="16" height="16" fill="rgb(18,28,16)"/>
  <rect x="112" y="496" width="16" height="16" fill="rgb(18,28,16)"/>
  <rect x="128" y="496" width="16" height="16" fill="rgb(18,28,16)"/>
  <rect x="144" y="496" width="16" height="16" fill="rgb(18,28,16)"/>
  <rect x="160" y="496" width="16" height="16" fill="rgb(18,28,16)"/>
  <rect x="176" y="496" width="16" height="16" fill="rgb(18,28,16)"/>
  <rect x="192" y="496" width="16" height="16" fill="rgb(18,28,16)"/>
  <rect x="208" y="496" width="16" height="16" fill="rgb(18,28,16)"/>
  <rect x="224" y="496" width="16" height="16" fill="rgb(18,28,16)"/>
  <rect x="240" y="496" width="16" height="16" fill="rgb(18,28,16)"/>
  <rect x="256" y="496" width="16" height="16" fill="rgb(18,28,16)"/>
  <rect x="272" y="496" width="16" height="16" fill="rgb(18,28,16)"/>
  <rect x="288" y="496" width="16" height="16" fill="rgb(18,28,16)"/>
  <rect x="304" y="496" width="16" height="16" fill="rgb(18,28,16)"/>
  <rect x="320" y="496" width="16" height="16" fill="rgb(18,28,16)"/>
  <rect x="336" y="496" width="16" height="16" fill="rgb(18,28,16)"/>
  <rect x="352" y="496" width="16" height="16" fill="rgb(18,28,16)"/>
  <rect x="368" y="496" width="16" height="16" fill="rgb(18,28,16)"/>
  <rect x="384" y="496" width="16" height="16" fill="rgb(18,28,16)"/>
  <rect x="400" y="496" width="16" height="16" fill="rgb(18,28,16)"/>
  <rect x="416" y="496" width="16" height="16" fill="rgb(18,28,16)"/>
  <rect x="432" y="496" width="16" height="16" fill="rgb(18,28,16)"/>
  <rect x="448" y="496" width="16" height="16" fill="rgb(18,28,16)"/>
  <rect x="464" y="496" width="16" height="16" fill="rgb(18,28,16)"/>
  <rect x="480" y="496" width="16" height="16" fill="rgb(18,28,16)"/>
  <rect x="496" y="496" width="16" height="16" fill="rgb(18,28,16)"/>
</svg>